<?xml version="1.0" encoding="UTF-8" standalone="no"?>
<!-- Created with Inkscape (http://www.inkscape.org/) -->

<svg
   xmlns:dc="http://purl.org/dc/elements/1.1/"
   xmlns:cc="http://creativecommons.org/ns#"
   xmlns:rdf="http://www.w3.org/1999/02/22-rdf-syntax-ns#"
   xmlns:svg="http://www.w3.org/2000/svg"
   xmlns="http://www.w3.org/2000/svg"
   xmlns:sodipodi="http://sodipodi.sourceforge.net/DTD/sodipodi-0.dtd"
   xmlns:inkscape="http://www.inkscape.org/namespaces/inkscape"
   width="64"
   height="64"
   id="svg3840"
   version="1.1"
   inkscape:version="0.48.4 r9939"
   sodipodi:docname="New document 7">
  <defs
     id="defs3842" />
  <sodipodi:namedview
     id="base"
     pagecolor="#ffffff"
     bordercolor="#666666"
     borderopacity="1.0"
     inkscape:pageopacity="0.0"
     inkscape:pageshadow="2"
     inkscape:zoom="1.4"
     inkscape:cx="23.976809"
     inkscape:cy="44.39162"
     inkscape:document-units="px"
     inkscape:current-layer="layer1"
     showgrid="false"
     fit-margin-top="0"
     fit-margin-left="0"
     fit-margin-right="0"
     fit-margin-bottom="0"
     inkscape:window-width="469"
     inkscape:window-height="433"
     inkscape:window-x="200"
     inkscape:window-y="200"
     inkscape:window-maximized="0" />
  <metadata
     id="metadata3845">
    <rdf:RDF>
      <cc:Work
         rdf:about="">
        <dc:format>image/svg+xml</dc:format>
        <dc:type
           rdf:resource="http://purl.org/dc/dcmitype/StillImage" />
        <dc:title></dc:title>
      </cc:Work>
    </rdf:RDF>
  </metadata>
  <g
     inkscape:label="Layer 1"
     inkscape:groupmode="layer"
     id="layer1"
     transform="translate(-343,-500.36218)">
    <rect
       style="opacity:0;fill:#f4d7d7;fill-opacity:1;stroke:none"
       id="rect3788"
       width="64"
       height="64"
       x="343"
       y="500.36218" />
    <path
       style="fill:#ff8080;stroke:none"
       d="m 361.46399,555.80948 c -0.0609,-0.0152 -0.9433,-0.16122 -1.21393,-0.36418 -0.0916,-0.0687 -0.14463,-0.18391 -0.24277,-0.24279 -0.10974,-0.0658 -0.2428,-0.0809 -0.36419,-0.12139 -0.16186,-0.0809 -0.335,-0.14241 -0.48557,-0.24279 -0.0952,-0.0635 -0.14756,-0.1793 -0.24279,-0.24279 -0.15056,-0.10037 -0.32371,-0.16185 -0.48557,-0.24278 -0.29683,-0.14842 -0.59236,-0.27109 -0.84974,-0.48557 -0.13189,-0.1099 -0.25428,-0.23229 -0.36419,-0.36418 -0.0934,-0.11208 -0.1307,-0.27078 -0.24278,-0.36418 -0.13902,-0.11585 -0.34818,-0.12501 -0.48557,-0.24278 -0.15361,-0.13167 -0.22111,-0.34251 -0.36417,-0.48557 -0.14308,-0.14307 -0.34251,-0.22112 -0.48559,-0.36418 -0.25286,-0.25288 -0.55498,-0.80358 -0.72834,-1.09254 -0.1214,-0.20232 -0.2428,-0.40464 -0.36419,-0.60696 -1.11624,-1.86041 0.44588,0.77831 -0.72836,-1.33532 -0.27061,-0.48712 -0.35745,-0.41479 -0.72835,-0.97115 -0.10038,-0.15057 -0.14241,-0.335 -0.24279,-0.48557 -0.14372,-0.21558 -0.33699,-0.3947 -0.48557,-0.60696 -0.13531,-0.19329 -0.23751,-0.40791 -0.36418,-0.60697 -0.40372,-0.63442 -0.90095,-1.25372 -1.21393,-1.94228 -0.069,-0.15188 -0.0594,-0.33067 -0.12139,-0.48557 -0.10081,-0.25203 -0.25393,-0.48031 -0.36418,-0.72836 -0.052,-0.11693 -0.0642,-0.24973 -0.12139,-0.36418 -0.0652,-0.13049 -0.19156,-0.22757 -0.24279,-0.36417 -0.0724,-0.19319 -0.0291,-0.42242 -0.12139,-0.60697 -0.11587,-0.23175 -0.37836,-0.37109 -0.48557,-0.60696 -0.10185,-0.22408 -0.058,-0.49054 -0.1214,-0.72836 -0.89974,-3.37405 0.15449,1.02628 -0.72835,-2.06368 -0.11256,-0.39396 -0.17366,-1.35386 -0.24279,-1.6995 -0.0578,-0.28887 -0.18501,-0.56089 -0.24278,-0.84975 -0.59129,-2.95644 0.26373,0.66424 -0.24279,-1.6995 -0.47932,-2.23682 -0.0523,0.20647 -0.36418,-1.82089 -0.0374,-0.24327 -0.10095,-0.48307 -0.12139,-0.72835 -0.0202,-0.24196 0.0344,-0.48802 0,-0.72836 -0.34795,-2.43565 -0.18804,0.57834 -0.36418,-2.06368 -0.0708,-1.06219 0.0944,-0.47208 0,-1.6995 -0.0158,-0.20572 -0.10271,-0.40149 -0.12139,-0.60697 -0.022,-0.24178 0,-0.48557 0,-0.72835 0,-0.72836 0,-1.45672 0,-2.18507 0,-0.6879 0,-1.37579 0,-2.06368 0,-0.16186 -0.0161,-0.32452 0,-0.48557 0.0245,-0.24491 0.0969,-0.48345 0.12139,-0.72836 0.0161,-0.16106 -0.0393,-0.32855 0,-0.48557 0.0439,-0.17556 0.2021,-0.30924 0.24279,-0.48557 0.0824,-0.35704 0.073,-0.72933 0.12139,-1.09254 0.0326,-0.24397 0.10095,-0.48307 0.12139,-0.72836 0.0202,-0.24194 -0.0399,-0.48887 0,-0.72835 0.0421,-0.25244 0.18524,-0.47899 0.24279,-0.72836 0.0643,-0.2788 0.0779,-0.56695 0.12139,-0.84975 0.0374,-0.24327 0.0809,-0.48557 0.1214,-0.72836 0.0152,-0.0911 0.19058,-1.19175 0.24278,-1.33532 -0.25903,-0.63185 0.45659,-0.62026 0.60696,-0.97114 0.0813,-0.18965 0.019,-0.42782 0.1214,-0.60696 0.0724,-0.12668 0.26101,-0.13963 0.36417,-0.24279 0.10317,-0.10317 0.15525,-0.24746 0.24279,-0.36418 0.0344,-0.0458 0.0809,-0.0809 0.12139,-0.12139 0.0809,-0.0809 0.15123,-0.17411 0.24279,-0.24279 0.42365,-0.31773 1.08944,-0.24278 1.57811,-0.24278 0.2804,0 1.95802,0 2.06368,0 0.36417,0 0.73768,-0.0819 1.09253,0 0.19714,0.0455 0.3007,0.282 0.48557,0.36418 0.18855,0.0838 0.40681,0.0714 0.60696,0.12139 0.12414,0.0311 0.24437,0.0765 0.36418,0.12139 1.24733,0.46775 -0.0361,-0.018 1.21393,0.60697 0.1949,0.0974 0.41568,0.13844 0.60698,0.24278 0.25615,0.13973 0.47218,0.34585 0.72834,0.48557 1.3644,0.54576 -0.0183,-0.0997 0.97114,0.60697 0.14727,0.10518 0.34656,0.12693 0.48559,0.24278 0.18626,0.15522 0.37216,0.67963 0.48557,0.84975 0.14371,0.21559 0.35973,0.38048 0.48557,0.60697 0.081,0.14584 0.10859,0.31922 0.12138,0.48557 0.0279,0.3631 0,0.72835 0,1.09253 0,0.16186 -0.0179,0.32471 0,0.48558 0.0228,0.20506 0.10086,0.40165 0.12141,0.60696 0.0201,0.20132 0,0.40464 0,0.60697 0,0.67001 0,0.83941 0,1.45671 0,0.20232 0,0.40464 0,0.60696 0,0.20232 -0.0362,0.40791 0,0.60697 0.0458,0.25179 0.197,0.47656 0.24277,0.72835 0.0362,0.19906 0,0.40465 0,0.60697 0,0.24278 0,0.48557 0,0.72835 0,1.05207 0,2.10415 0,3.15622 0,0.20232 0,0.40464 0,0.60696 0,0.24278 -0.022,0.48657 0,0.72836 0.0187,0.20548 0.10087,0.40166 0.1214,0.60697 0.091,0.91044 -0.0728,0.29134 0,1.09253 0.0259,0.28495 0.0955,0.56479 0.1214,0.84975 0.0147,0.16119 -0.0201,0.32496 0,0.48557 0.0384,0.30701 0.20441,0.66413 0.24277,0.97114 0.0201,0.16061 0,0.32372 0,0.48558 0,0.12138 -0.0333,0.24745 0,0.36417 0.0497,0.174 0.18557,0.3139 0.2428,0.48557 0.0293,0.0879 -0.04,0.44556 0,0.48558 0.0286,0.0286 0.11027,0.0389 0.12138,0 0.1729,-0.60514 0.12139,-1.33384 0.12139,-1.94229 0,-0.40464 0,-0.80929 0,-1.21393 0,-0.84975 0,-1.6995 0,-2.54925 0,-0.44511 -0.0342,-0.89153 0,-1.33532 0.047,-0.61053 0.16685,-1.21329 0.2428,-1.82089 0.0454,-0.36359 0.0642,-0.7306 0.12139,-1.09254 0.0644,-0.4076 0.17494,-0.80689 0.24278,-1.21393 7.6e-4,-0.006 0.21202,-1.74399 0.24279,-1.82089 0.0637,-0.15939 0.2808,-0.21411 0.36417,-0.36418 0.1243,-0.22371 0.11113,-0.5089 0.2428,-0.72836 0.11777,-0.19628 0.32371,-0.3237 0.48557,-0.48556 0.40463,-0.40465 0.78857,-0.83112 1.21393,-1.21393 0.27654,-0.24889 0.73151,-0.53025 0.97114,-0.84976 0.24783,-0.33045 0.48753,-0.81583 0.60696,-1.21392 0.0593,-0.19763 0.0621,-0.40934 0.1214,-0.60697 0.17892,-0.59643 0.54942,-1.10306 0.72834,-1.6995 0.38569,-1.28558 -0.23406,0.0814 0.48557,-1.21392 0.0879,-0.15819 0.12502,-0.34818 0.24279,-0.48557 0.13167,-0.15362 0.33015,-0.23466 0.48557,-0.36418 0.43505,-0.36254 0.034,-0.15815 0.60697,-0.48557 0.15713,-0.0898 0.33501,-0.14241 0.48557,-0.24279 0.28827,-0.19218 0.22109,-0.37532 0.60696,-0.48557 0.15563,-0.0445 0.32452,0.0161 0.48557,0 0.24493,-0.0245 0.48307,-0.10095 0.72836,-0.12139 0.24195,-0.0201 0.48692,0.0254 0.72837,0 3.41705,-0.35969 -0.5129,-0.24279 3.88457,-0.24279 1.65902,0 3.31806,0 4.9771,0 1.13299,0 2.26684,0.0435 3.399,0 8.40929,-0.32343 -2.57353,-0.24279 5.82685,-0.24279 0.64742,0 1.29485,0 1.94229,0 0.44511,0 0.89807,-0.0833 1.33533,0 0.42811,0.0815 0.80047,0.34776 1.21391,0.48558 0.96769,0.32256 1.07889,0.2832 1.82089,0.48557 0.28421,0.0775 0.57482,0.13703 0.84976,0.24278 0.77063,0.2964 0.73762,0.42675 1.45671,0.84975 1.64045,0.96498 0.98175,0.42379 2.42785,1.45671 0.21084,0.1506 0.42376,0.30237 0.60698,0.48558 0.1832,0.1832 0.36969,0.37522 0.48557,0.60696 0.16107,0.32215 0.12138,0.87447 0.12138,1.21393 0,0.24278 0,0.48557 0,0.72836 0,0.20232 0.0251,0.4062 0,0.60696 -0.0159,0.12697 -0.0936,0.23927 -0.12138,0.36418 -0.0534,0.24027 -0.0698,0.48769 -0.1214,0.72836 -0.0699,0.32626 -0.17735,0.64394 -0.24279,0.97114 -0.0561,0.28057 -0.0955,0.5648 -0.12138,0.84975 -0.0576,0.63369 0.13619,0.68397 -0.1214,1.45671 -0.064,0.19194 -0.28046,0.30139 -0.36417,0.48557 -0.40972,0.90136 -0.026,0.77921 -0.60697,1.57811 -0.16829,0.2314 -0.44411,0.37172 -0.60696,0.60697 -1.09213,1.5775 0.099,0.39155 -0.97114,1.69949 -0.18119,0.22145 -0.4628,0.35982 -0.60697,0.60697 -0.14843,0.25446 -0.0966,0.59398 -0.24279,0.84975 -0.18509,0.32391 -0.50173,0.5534 -0.72836,0.84975 -0.30003,0.39235 -0.52159,0.84476 -0.84974,1.21393 -0.32371,0.36417 -0.73708,0.63788 -1.09254,0.97114 -0.29223,0.27397 -0.5665,0.5665 -0.84976,0.84975 -0.20231,0.20232 -0.41361,0.39604 -0.60694,0.60696 -1.50599,1.64289 0.003,0.0527 -1.33533,1.6995 -0.30727,0.37816 -0.69016,0.69447 -0.97114,1.09254 -0.20873,0.29568 -0.31525,0.6518 -0.48558,0.97114 -0.15353,0.28785 -0.29988,0.58152 -0.48558,0.84975 -0.17989,0.25984 -0.3919,0.49677 -0.60696,0.72836 -0.28389,0.30573 -1.83029,1.80571 -2.06367,2.06367 -0.42406,0.46871 -0.7786,0.99847 -1.21393,1.45672 -0.43388,0.78202 -1.35242,0.98824 -1.94228,1.57811 -0.32623,0.32623 -0.56471,0.72975 -0.84976,1.09253 -0.16008,0.20374 -0.33317,0.39743 -0.48557,0.60697 -0.38224,0.52558 -0.65865,1.00519 -0.97113,1.5781 -0.0867,0.15887 -0.18557,0.3139 -0.2428,0.48557 -0.0652,0.19575 -0.002,0.43907 -0.12139,0.60697 -0.30348,0.42487 -0.45523,0.091 -0.72835,0.36418 -0.0286,0.0286 0,0.0809 0,0.12139 -0.1214,0.12139 -0.21861,0.27319 -0.36419,0.36418 -0.36581,0.22863 -0.6116,0.2101 -0.97114,0.36417 -0.49811,0.21348 -0.96145,0.50825 -1.45672,0.72836 -0.43546,0.19354 -0.5707,0.2307 -0.97114,0.36419 -0.12138,0.0405 -0.25307,0.0579 -0.36417,0.12138 -0.17566,0.10039 -0.30068,0.28201 -0.48557,0.36418 -0.18854,0.0838 -0.40679,0.0713 -0.60697,0.12139 -0.81842,0.20461 0.1024,0.008 -0.72836,0.36418 -0.15334,0.0657 -0.33222,0.0557 -0.48557,0.1214 -0.13409,0.0575 -0.24745,0.15524 -0.36417,0.24278 -0.0458,0.0344 -0.0683,0.10014 -0.1214,0.12139 -0.38895,0.15559 -0.49662,0.0662 -0.84974,0.24279 -0.13049,0.0652 -0.22577,0.19665 -0.36419,0.24279 -0.11516,0.0384 -0.24513,-0.0238 -0.36417,0 -0.0887,0.0177 -0.16185,0.0809 -0.24279,0.12139 -0.0809,0.0405 -0.16749,0.0712 -0.24278,0.12139 -0.0952,0.0635 -0.14042,0.19161 -0.24279,0.24279 -0.0362,0.0181 -0.0809,0 -0.1214,0 -0.0809,0 -0.166,-0.0256 -0.24277,0 -0.0543,0.0181 -0.0702,0.0958 -0.1214,0.12139 -0.0362,0.0181 -0.0809,0 -0.1214,0 -0.0809,0 -0.16426,-0.0196 -0.24279,0 -0.0878,0.0219 -0.15693,0.0928 -0.24278,0.1214 -0.0384,0.0128 -0.083,-0.0128 -0.12139,0 -0.44009,0.14669 -0.0864,0.0576 -0.36417,0.24278 -0.31822,0.21214 -0.21215,0.0454 -0.60697,0.24279 -0.13049,0.0652 -0.25025,0.15164 -0.36417,0.24278 -0.0894,0.0715 -0.14042,0.1916 -0.2428,0.24279 -0.14922,0.0746 -0.32515,0.0756 -0.48556,0.12139 -0.23717,-0.005 -0.40024,0.17387 -0.60697,0.24278 -0.11904,0.0397 -0.70362,0.15511 -0.84976,0.24279 -0.0981,0.0589 -0.14463,0.1839 -0.24277,0.24279 -0.10974,0.0658 -0.2428,0.0809 -0.36418,0.12139 -0.12139,0.0405 -0.24004,0.0904 -0.36419,0.12139 -0.0393,0.01 -0.083,-0.0128 -0.12139,0 -0.0858,0.0286 -0.15695,0.0928 -0.24278,0.1214 -0.0384,0.0128 -0.083,-0.0128 -0.1214,0 -0.0858,0.0286 -0.16185,0.0809 -0.24277,0.12139 -0.0809,0.0405 -0.16751,0.0712 -0.24279,0.12139 -0.13059,0.0871 -0.11221,0.15573 -0.2428,0.24278 -0.0753,0.0502 -0.1675,0.0712 -0.24277,0.1214 -0.0952,0.0635 -0.14043,0.1916 -0.2428,0.24279 -0.0362,0.0181 -0.0852,-0.0181 -0.12139,0 -0.0512,0.0256 -0.0702,0.0958 -0.12138,0.12139 -0.0362,0.0181 -0.0852,-0.0181 -0.1214,0 -0.14567,0.0728 -0.2185,0.29134 -0.36417,0.36418 -0.0362,0.0181 -0.0852,-0.0181 -0.12141,0 -0.0512,0.0256 -0.0738,0.0897 -0.12139,0.12139 -0.0753,0.0502 -0.16185,0.0809 -0.24278,0.12139 -0.0809,0.0405 -0.15695,0.0928 -0.24278,0.1214 -0.0384,0.0128 -0.0852,-0.0181 -0.1214,0 -0.5052,0.2526 0.12977,-0.008 -0.1214,0.24278 -0.0572,0.0572 -0.1704,-0.0362 -0.24277,0 -0.0512,0.0255 -0.0702,0.0958 -0.1214,0.12139 -0.0362,0.0181 -0.0852,-0.0181 -0.1214,0 -0.10237,0.0512 -0.14042,0.1916 -0.24278,0.24279 -0.0362,0.0181 -0.0809,0 -0.12139,0 -0.0405,0.0405 -0.0702,0.0958 -0.1214,0.12139 -0.0724,0.0362 -0.1704,-0.0362 -0.24279,0 -0.031,0.0155 -0.21179,0.2273 -0.24277,0.24279 -0.0724,0.0362 -0.18557,-0.0572 -0.2428,0 -0.0286,0.0286 0.0286,0.0928 0,0.12139 -0.0286,0.0286 -0.0928,-0.0286 -0.12139,0 -0.0286,0.0286 0.0286,0.0928 0,0.12139 -0.0572,0.0572 -0.18556,-0.0572 -0.24279,0 -0.0286,0.0286 0,0.0809 0,0.1214 -0.2023,0 -0.40464,0 -0.60696,0 z"
       id="path3794"
       inkscape:connector-curvature="0" />
  </g>
</svg>
