<?xml version="1.0" encoding="UTF-8" standalone="no"?>
<!-- Created with Inkscape (http://www.inkscape.org/) -->

<svg
   xmlns:dc="http://purl.org/dc/elements/1.1/"
   xmlns:cc="http://creativecommons.org/ns#"
   xmlns:rdf="http://www.w3.org/1999/02/22-rdf-syntax-ns#"
   xmlns:svg="http://www.w3.org/2000/svg"
   xmlns="http://www.w3.org/2000/svg"
   xmlns:sodipodi="http://sodipodi.sourceforge.net/DTD/sodipodi-0.dtd"
   xmlns:inkscape="http://www.inkscape.org/namespaces/inkscape"
   width="64"
   height="64"
   id="svg3840"
   version="1.1"
   inkscape:version="0.48.4 r9939"
   sodipodi:docname="heart.svg">
  <defs
     id="defs3842" />
  <sodipodi:namedview
     id="base"
     pagecolor="#ffffff"
     bordercolor="#666666"
     borderopacity="1.0"
     inkscape:pageopacity="0.0"
     inkscape:pageshadow="2"
     inkscape:zoom="7.9195959"
     inkscape:cx="45.036744"
     inkscape:cy="29.023568"
     inkscape:document-units="px"
     inkscape:current-layer="layer1"
     showgrid="false"
     fit-margin-top="0"
     fit-margin-left="0"
     fit-margin-right="0"
     fit-margin-bottom="0"
     inkscape:window-width="1920"
     inkscape:window-height="1018"
     inkscape:window-x="-8"
     inkscape:window-y="-8"
     inkscape:window-maximized="1" />
  <metadata
     id="metadata3845">
    <rdf:RDF>
      <cc:Work
         rdf:about="">
        <dc:format>image/svg+xml</dc:format>
        <dc:type
           rdf:resource="http://purl.org/dc/dcmitype/StillImage" />
        <dc:title />
      </cc:Work>
    </rdf:RDF>
  </metadata>
  <g
     inkscape:label="Layer 1"
     inkscape:groupmode="layer"
     id="layer1"
     transform="translate(-343,-500.36218)">
    <path
       style="fill:#9e1e1e;stroke:#ffffff;stroke-width:1;stroke-linejoin:round;stroke-miterlimit:4;stroke-dasharray:none"
       inkscape:connector-curvature="0"
       d="m 397.61746,503.68574 c -2.4918,-1.27942 -5.08674,-1.92833 -7.71316,-1.92833 -6.65721,0 -11.95776,4.1409 -14.90433,7.11215 -2.94639,-2.97125 -8.24731,-7.11215 -14.90486,-7.11215 -2.62587,0 -5.22101,0.64891 -7.71298,1.92833 -6.0501,3.10657 -8.76983,9.40981 -7.65774,17.74847 0.527,3.95268 3.00878,8.16849 6.56066,12.50441 l 0,15.84875 c 0,1.3595 1.10227,2.46177 2.46177,2.46177 1.35951,0 2.46177,-1.10227 2.46177,-2.46177 l 0,-10.38748 c 0.72489,0.74527 1.46926,1.49214 2.22992,2.24009 l 0,20.4317 c 0,0.49447 0.40079,0.89525 0.89524,0.89525 0.49447,0 0.89526,-0.40078 0.89526,-0.89525 l 0,-18.69518 c 0.32142,0.30766 2.87676,2.6687 3.20211,2.97637 l 0,8.79337 c 0,1.11244 0.90186,2.0143 2.01433,2.0143 1.11244,0 2.01432,-0.90186 2.01432,-2.0143 l 0,-5.04952 c 1.09725,1.00574 -0.0314,-0.0437 1.06856,0.95701 1.51271,1.37596 2.94122,2.67558 4.34524,3.97287 l 2.12658,1.96516 2.1264,-1.96516 c 0.18539,-0.17143 0.37291,-0.34341 0.55936,-0.51503 l 0,7.38352 c 0,0.49447 0.40079,0.89526 0.89526,0.89526 0.49447,0 0.89524,-0.40079 0.89524,-0.89526 l 0,-9.0244 c 0.34467,-0.31444 5.06444,-4.56133 5.41607,-4.88168 l 0,9.50955 c 0,0.74151 0.60118,1.34288 1.34287,1.34288 0.7417,0 1.34289,-0.60119 1.34289,-1.34288 l 0,-11.95416 c 10.5405,-9.60913 16.55143,-15.51661 17.6975,-24.10983 1.11173,-8.33902 -1.60781,-14.64226 -7.65828,-17.74883 z m 1.44657,16.92044 c -0.90635,6.79627 -12.49477,17.3382 -21.80627,25.80914 -0.74543,0.67824 -1.50411,1.36826 -2.25797,2.05687 -0.7526,-0.68752 -1.51002,-1.37649 -2.25457,-2.05383 -9.31274,-8.47183 -20.90278,-19.0152 -21.80912,-25.81218 -0.34215,-2.56599 -0.22756,-4.79303 0.34038,-6.61967 0.66983,-2.15303 1.96783,-3.69881 3.96802,-4.72616 1.5978,-0.82036 3.22993,-1.23634 4.85079,-1.23634 6.90962,0 12.30544,7.36312 12.35424,7.43071 l 2.54044,3.54616 2.55543,-3.53919 c 0.0535,-0.0744 5.45018,-7.43768 12.3589,-7.43768 1.62104,0 3.25316,0.41598 4.85079,1.23634 2.00054,1.02718 3.29837,2.57313 3.96802,4.72616 0.56831,1.82645 0.68306,4.0535 0.34092,6.61967 z"
       id="path3023"
       sodipodi:nodetypes="sscscccsssccsssccsssccccccsssccsssccscccssccscccsccc" />
  </g>
</svg>
